<svg version="1.1" id="Layer_1" xmlns="http://www.w3.org/2000/svg" xmlns:xlink="http://www.w3.org/1999/xlink" x="0px" y="0px"
	 width="100%" viewBox="0 0 516 484" enable-background="new 0 0 516 484" xml:space="preserve">
<path fill="#FDFCFC" opacity="1.000000" stroke="none" 
	d="
M261.250793,58.053551 
	C295.130829,58.487560 325.774261,67.856377 354.112732,85.612976 
	C370.582123,95.932549 385.085022,108.480804 397.852142,122.854301 
	C412.515503,139.362595 423.897461,158.144882 431.752686,178.913147 
	C441.639801,205.053406 445.728088,232.178665 443.556244,259.937744 
	C441.949982,280.468018 437.226837,300.429718 429.003265,319.568024 
	C420.588989,339.150085 409.266357,356.615417 395.008698,372.387268 
	C374.825836,394.713684 350.471222,410.697754 322.649719,421.865601 
	C296.145508,432.504730 268.525574,435.482178 240.426758,433.577789 
	C220.422958,432.222015 201.108627,427.041077 182.579330,418.986572 
	C165.066544,411.373993 149.232742,401.375122 134.643570,389.052856 
	C116.507942,373.735260 101.545853,355.761261 90.508720,334.974579 
	C84.029762,322.772522 79.631958,309.326111 75.461617,296.073273 
	C70.384094,279.937561 68.387062,263.081757 68.609955,246.199799 
	C68.944801,220.838455 73.002365,196.071457 83.301643,172.618774 
	C91.970619,152.878479 103.472649,135.083603 118.287170,119.307968 
	C137.848190,98.477867 160.290543,81.932266 186.725540,70.900208 
	C199.622421,65.517975 213.014984,62.000076 226.833267,60.180862 
	C236.392883,58.922314 246.000534,58.006622 255.603638,57.121136 
	C257.285706,56.966030 259.051514,57.719040 261.250793,58.053551 
M180.541397,285.959045 
	C204.431854,309.890533 228.380310,333.764709 252.147247,357.818237 
	C255.528931,361.240723 257.591858,361.205750 260.972321,357.795349 
	C294.975769,323.490631 329.106384,289.311737 363.288177,255.184494 
	C365.960449,252.516464 369.286072,250.502823 372.345764,248.156113 
	C369.984009,245.353928 369.107025,244.150406 368.069733,243.106155 
	C332.736389,207.537064 297.377625,171.993225 262.051910,136.416534 
	C256.410614,130.735138 256.595642,130.791336 251.022400,136.428543 
	C220.935303,166.860962 190.795731,197.241562 160.643219,227.609222 
	C154.355453,233.941864 147.936981,240.144760 141.087906,246.890915 
	C154.513809,260.181885 167.279144,272.818909 180.541397,285.959045 
z"/>
<path fill="#78509F" opacity="1.000000" stroke="none" 
	d="
M180.292938,285.707520 
	C167.279144,272.818909 154.513809,260.181885 141.087906,246.890915 
	C147.936981,240.144760 154.355453,233.941864 160.643219,227.609222 
	C190.795731,197.241562 220.935303,166.860962 251.022400,136.428543 
	C256.595642,130.791336 256.410614,130.735138 262.051910,136.416534 
	C297.377625,171.993225 332.736389,207.537064 368.069733,243.106155 
	C369.107025,244.150406 369.984009,245.353928 372.345764,248.156113 
	C369.286072,250.502823 365.960449,252.516464 363.288177,255.184494 
	C329.106384,289.311737 294.975769,323.490631 260.972321,357.795349 
	C257.591858,361.205750 255.528931,361.240723 252.147247,357.818237 
	C228.380310,333.764709 204.431854,309.890533 180.292938,285.707520 
M182.521713,248.604584 
	C201.585770,267.766388 220.649826,286.928192 240.678467,307.059509 
	C240.678467,266.384247 240.678467,227.325378 240.678467,187.751709 
	C239.463013,188.393829 238.787277,188.574982 238.357666,189.003128 
	C220.067871,207.230209 201.778671,225.458115 183.589676,243.785431 
	C182.638672,244.743698 182.562515,246.570221 182.521713,248.604584 
M243.001831,259.500000 
	C243.001831,272.103821 243.001831,284.707642 243.001831,297.311462 
	C243.668060,297.306458 244.334274,297.301483 245.000504,297.296478 
	C245.000504,295.590881 245.000488,293.885284 245.000488,292.179688 
	C245.000519,261.364990 244.969223,230.550201 245.044388,199.735672 
	C245.052826,196.280289 246.205246,192.760498 245.795395,189.396271 
	C245.546066,187.349762 243.420746,185.454300 241.891373,183.706970 
	C241.587326,183.359589 240.161255,183.994247 240.586868,183.909088 
	C241.536774,187.299820 242.887436,189.915085 242.907715,192.540619 
	C243.077454,214.526016 243.002808,236.513290 243.001831,259.500000 
z"/>
<path fill="#FBF9FC" opacity="1.000000" stroke="none" 
	d="
M182.300385,248.298553 
	C182.562515,246.570221 182.638672,244.743698 183.589676,243.785431 
	C201.778671,225.458115 220.067871,207.230209 238.357666,189.003128 
	C238.787277,188.574982 239.463013,188.393829 240.678467,187.751709 
	C240.678467,227.325378 240.678467,266.384247 240.678467,307.059509 
	C220.649826,286.928192 201.585770,267.766388 182.300385,248.298553 
z"/>
<path fill="#734D96" opacity="1.000000" stroke="none" 
	d="
M243.001831,259.000000 
	C243.002808,236.513290 243.077454,214.526016 242.907715,192.540619 
	C242.887436,189.915085 241.536774,187.299820 240.586868,183.909088 
	C240.161255,183.994247 241.587326,183.359589 241.891373,183.706970 
	C243.420746,185.454300 245.546066,187.349762 245.795395,189.396271 
	C246.205246,192.760498 245.052826,196.280289 245.044388,199.735672 
	C244.969223,230.550201 245.000519,261.364990 245.000488,292.179688 
	C245.000488,293.885284 245.000504,295.590881 245.000504,297.296478 
	C244.334274,297.301483 243.668060,297.306458 243.001831,297.311462 
	C243.001831,284.707642 243.001831,272.103821 243.001831,259.000000 
z"/>
</svg>